HIERARCHY
ROOT Hips
{
    OFFSET 0.000000 0.000000 0.000000
    CHANNELS 6 Xposition Yposition Zposition Zrotation Xrotation Yrotation
    JOINT Spine
    {
        OFFSET -0.000000 14.517291 0.000000
        CHANNELS 3 Zrotation Xrotation Yrotation
        JOINT Spine1
        {
            OFFSET -0.000000 37.558300 0.000000
            CHANNELS 3 Zrotation Xrotation Yrotation
            JOINT Neck
            {
                OFFSET -0.000000 37.404057 3.400369
                CHANNELS 3 Zrotation Xrotation Yrotation
                JOINT Head
                {
                    OFFSET -0.000000 24.785618 -3.540803
                    CHANNELS 3 Zrotation Xrotation Yrotation
                    End Site
                    {
                        OFFSET -0.000000 35.408028 0.000000
                    }
                }
            }
            JOINT LeftShoulder
            {
                OFFSET 6.992933 33.973492 -0.192664
                CHANNELS 3 Zrotation Xrotation Yrotation
                JOINT LeftArm
                {
                    OFFSET 21.527611 0.000000 0.000000
                    CHANNELS 3 Zrotation Xrotation Yrotation
                    JOINT LeftForeArm
                    {
                        OFFSET 56.353916 0.000000 0.000000
                        CHANNELS 3 Zrotation Xrotation Yrotation
                        JOINT LeftHand
                        {
                            OFFSET 47.774071 0.000000 0.000000
                            CHANNELS 3 Zrotation Xrotation Yrotation
                            End Site
                            {
                                OFFSET 26.556021 0.000000 0.000000
                            }
                        }
                    }
                }
            }
            JOINT RightShoulder
            {
                OFFSET -7.065357 33.973492 -0.192664
                CHANNELS 3 Zrotation Xrotation Yrotation
                JOINT RightArm
                {
                    OFFSET -21.527611 0.000000 0.000000
                    CHANNELS 3 Zrotation Xrotation Yrotation
                    JOINT RightForeArm
                    {
                        OFFSET -56.353916 0.000000 0.000000
                        CHANNELS 3 Zrotation Xrotation Yrotation
                        JOINT RightHand
                        {
                            OFFSET -47.774071 0.000000 0.000000
                            CHANNELS 3 Zrotation Xrotation Yrotation
                            End Site
                            {
                                OFFSET -26.556021 0.000000 0.000000
                            }
                        }
                    }
                }
            }
        }
    }
    JOINT LeftUpLeg
    {
        OFFSET 17.704014 0.000000 0.000000
        CHANNELS 3 Zrotation Xrotation Yrotation
        JOINT LeftLeg
        {
            OFFSET -0.000000 -81.181816 0.000000
            CHANNELS 3 Zrotation Xrotation Yrotation
            JOINT LeftFoot
            {
                OFFSET -0.000000 -62.821102 0.000000
                CHANNELS 3 Zrotation Xrotation Yrotation
                JOINT LeftToeBase
                {
                    OFFSET -0.000000 -11.507608 26.556021
                    CHANNELS 3 Zrotation Xrotation Yrotation
                    End Site
                    {
                        OFFSET -0.000000 0.000000 7.081605
                    }
                }
            }
        }
    }
    JOINT RightUpLeg
    {
        OFFSET -17.704014 0.000000 0.000000
        CHANNELS 3 Zrotation Xrotation Yrotation
        JOINT RightLeg
        {
            OFFSET -0.000000 -81.181816 0.000000
            CHANNELS 3 Zrotation Xrotation Yrotation
            JOINT RightFoot
            {
                OFFSET -0.000000 -62.821102 0.000000
                CHANNELS 3 Zrotation Xrotation Yrotation
                JOINT RightToeBase
                {
                    OFFSET -0.000000 -11.507608 26.556021
                    CHANNELS 3 Zrotation Xrotation Yrotation
                    End Site
                    {
                        OFFSET -0.000000 0.000000 7.081605
                    }
                }
            }
        }
    }
}
MOTION
Frames:    8
Frame Time:    0.008333
-4.920506    153.952713    -33.269230    3.125293    -1.661815    9.118909    -0.263964    -0.143607    3.152375    -2.011707    1.447844    1.075984    1.475620    1.522706    -5.838995    6.335134    -1.568911    -5.290137    -1.168417    9.780403    -10.236250    -40.740665    29.566956    -40.759636    14.309154    -37.750111    -70.916199    -16.166399    -26.149811    -23.873835    -1.046190    9.643190    -4.327055    46.164257    6.164847    49.987221    -12.821184    -36.108265    106.540260    13.059602    -19.115395    16.487047    2.597638    -23.436031    -21.674086    -9.294233    6.991948    -2.934044    -8.563567    14.118897    18.785322    0.000000    0.000000    0.000000    -3.073905    9.269632    -17.654146    7.391561    28.398943    -3.427917    -0.913336    -31.383509    -29.521181    0.000000    0.000000    0.000000    
-4.910638    153.954773    -33.272587    3.119753    -1.659827    9.115487    -0.263103    -0.141108    3.153014    -2.009889    1.453488    1.076226    1.475967    1.519763    -5.847169    6.327495    -1.580620    -5.299292    -1.170089    9.766945    -10.237260    -40.737263    29.582136    -40.747654    14.298832    -37.768436    -70.941574    -16.176037    -26.172020    -23.867086    -1.049868    9.630578    -4.319320    46.188278    6.148338    49.984886    -12.808605    -36.086269    106.553520    13.058483    -19.102787    16.482725    2.600059    -23.436956    -21.678532    -9.294744    6.986872    -2.915372    -8.554714    14.124518    18.778160    0.000000    0.000000    0.000000    -3.068888    9.269435    -17.648735    7.382362    28.388050    -3.444302    -0.884671    -31.384756    -29.492998    0.000000    0.000000    0.000000    
-4.897690    153.960419    -33.274597    3.111994    -1.655722    9.110744    -0.263364    -0.133643    3.159163    -2.000294    1.444299    1.078012    1.475803    1.516227    -5.847136    6.321047    -1.588390    -5.299866    -1.178391    9.763998    -10.243033    -40.723564    29.612959    -40.746834    14.299471    -37.809219    -70.960884    -16.168854    -26.217415    -23.856575    -1.058791    9.642960    -4.328846    46.192772    6.154290    50.004208    -12.811573    -36.101093    106.555283    13.064105    -19.113308    16.497646    2.601528    -23.438953    -21.669462    -9.285492    6.987511    -2.932889    -8.564876    14.117184    18.782026    0.000000    0.000000    0.000000    -3.062805    9.271186    -17.652393    7.363289    28.372128    -3.401893    -0.886701    -31.362692    -29.500200    0.000000    0.000000    0.000000    
-4.888353    153.963608    -33.281292    3.101157    -1.648430    9.104853    -0.256697    -0.130573    3.159814    -2.003489    1.439537    1.078207    1.486872    1.521209    -5.845255    6.307274    -1.610279    -5.300312    -1.176204    9.761281    -10.243187    -40.725403    29.611429    -40.738224    14.316481    -37.810329    -70.959160    -16.237108    -26.191444    -23.880178    -1.056353    9.644748    -4.324549    46.199306    6.151190    50.011417    -12.821593    -36.105141    106.547424    13.087872    -19.106415    16.476379    2.607190    -23.448099    -21.672384    -9.283428    6.985631    -2.919056    -8.558770    14.126824    18.786629    0.000000    0.000000    0.000000    -3.054001    9.269073    -17.645468    7.361179    28.347980    -3.422578    -0.871248    -31.361444    -29.472105    0.000000    0.000000    0.000000    
-4.874406    153.967285    -33.285091    3.096054    -1.636988    9.101987    -0.260095    -0.132903    3.159235    -1.998649    1.433587    1.077847    1.480097    1.516008    -5.850304    6.309394    -1.600655    -5.304904    -1.183658    9.753770    -10.245664    -40.707485    29.635059    -40.734959    14.328093    -37.836845    -70.961266    -16.193127    -26.223753    -23.867886    -1.058715    9.642934    -4.324116    46.212215    6.138357    50.013924    -12.812053    -36.071896    106.551559    13.039399    -19.088654    16.445795    2.605172    -23.455961    -21.668686    -9.276525    6.976109    -2.931178    -8.559633    14.140013    18.796751    0.000000    0.000000    0.000000    -3.054838    9.267355    -17.648260    7.370270    28.320190    -3.447696    -0.886905    -31.349873    -29.455963    0.000000    0.000000    0.000000    
-4.863615    153.973038    -33.291199    3.085017    -1.630693    9.096667    -0.258245    -0.120541    3.162045    -1.992802    1.408056    1.078269    1.482925    1.527221    -5.859256    6.300544    -1.598653    -5.315962    -1.189256    9.754663    -10.260904    -40.715542    29.644051    -40.708538    14.329111    -37.857483    -70.979607    -16.232676    -26.236151    -23.864630    -1.060249    9.656733    -4.325219    46.211205    6.145763    50.021160    -12.836094    -36.077671    106.530411    13.045822    -19.070786    16.433302    2.611420    -23.462467    -21.664541    -9.273348    6.974483    -2.937382    -8.573810    14.140659    18.811325    0.000000    0.000000    0.000000    -3.048657    9.263474    -17.631374    7.373564    28.301903    -3.435879    -0.890899    -31.329311    -29.457634    0.000000    0.000000    0.000000    
-4.847095    153.977493    -33.295216    3.077201    -1.620117    9.090463    -0.249021    -0.120071    3.163946    -1.999104    1.397805    1.078788    1.489195    1.524504    -5.866399    6.286975    -1.590599    -5.326855    -1.195698    9.755160    -10.262590    -40.691288    29.668766    -40.713215    14.352549    -37.887028    -70.967667    -16.250765    -26.251183    -23.877960    -1.062087    9.664560    -4.331166    46.226849    6.136568    50.029320    -12.823919    -36.051201    106.536438    13.044016    -19.054470    16.429310    2.613669    -23.471319    -21.662943    -9.272368    6.971796    -2.943829    -8.570529    14.136180    18.815973    0.000000    0.000000    0.000000    -3.049313    9.251464    -17.640837    7.364567    28.296656    -3.404519    -0.899209    -31.314854    -29.477917    0.000000    0.000000    0.000000    
-4.832681    153.982468    -33.298813    3.069829    -1.611639    9.080742    -0.248714    -0.118925    3.165775    -1.994350    1.386986    1.079136    1.485372    1.515679    -5.867839    6.289437    -1.566566    -5.328866    -1.202089    9.752044    -10.275530    -40.697365    29.670534    -40.692558    14.336210    -37.897911    -70.990822    -16.238352    -26.275906    -23.853458    -1.061491    9.683786    -4.332984    46.213524    6.146467    50.050518    -12.840944    -36.067612    106.517067    13.017607    -19.059383    16.443857    2.614911    -23.475338    -21.635977    -9.261332    6.967387    -2.951311    -8.560515    14.146719    18.800972    0.000000    0.000000    0.000000    -3.052411    9.243851    -17.610167    7.373995    28.291887    -3.405720    -0.881103    -31.321142    -29.467489    0.000000    0.000000    0.000000    
